{"title":"The.A-Team.2010.R5.CUSTOM.SWESUB.DVDRip.XviD.AC3-Zen_Bud","uid":5786044,"size":1470865444,"categoryP":"video","categoryS":"movies","magnet":"?xt=urn:btih:d1eabb973c6d7ff98be042b9df9d14e28cb03695&amp;dn=The.A-Team.2010.R5.CUSTOM.SWESUB.DVDRip.XviD.AC3-Zen_Bud&amp;tr=udp%3A%2F%2Ftracker.openbittorrent.com%3A80&amp;tr=udp%3A%2F%2Fopen.demonii.com%3A1337&amp;tr=udp%3A%2F%2Ftracker.coppersurfer.tk%3A6969&amp;tr=udp%3A%2F%2Fexodus.desync.com%3A6969","seeders":0,"leechers":0,"uploader":"Zen_Bud","files":-1,"time":1282634608,"description":"General\nComplete name                    : The.A-Team.2010.R5.CUSTOM.SWESUB.avi\nFormat                           : AVI\nFile size                        : 1.37 GiB\nDuration                         : 1h 53mn\nOverall bit rate                 : 1 723 Kbps\n\nVideo\n\nFormat                           : MPEG-4 Visual\nCodec ID/Hint                    : XviD\nDuration                         : 1h 53mn\nBit rate                         : 1 264 Kbps\nWidth                            : 720 pixels\nHeight                           : 442 pixels\nDisplay aspect ratio             : 2.35:1\nStream size                      : 1.00 GiB (73%)\nWriting library                  : XviD 1.1.2 (UTC 2006-11-01)\n\nAudio\n\nFormat                           : AC-3\nDuration                         : 1h 53mn\nBit rate                         : 448 Kbps\nChannel(s)                       : 6 channels\nChannel positions                : Front: L C R, Side: L R, LFE\nSampling rate                    : 48.0 KHz\nBit depth                        : 16 bits\nStream size                      : 365 MiB (26%)\n\n\n*********TNX to  robin8, vic &amp; simontax for the text :D***********","torrent":{"xt":"urn:btih:d1eabb973c6d7ff98be042b9df9d14e28cb03695","amp;dn":"The.A-Team.2010.R5.CUSTOM.SWESUB.DVDRip.XviD.AC3-Zen_Bud","amp;tr":["udp%3A%2F%2Ftracker.openbittorrent.com%3A80","udp%3A%2F%2Fopen.demonii.com%3A1337","udp%3A%2F%2Ftracker.coppersurfer.tk%3A6969","udp%3A%2F%2Fexodus.desync.com%3A6969"],"infoHash":"d1eabb973c6d7ff98be042b9df9d14e28cb03695","infoHashBuffer":{"type":"Buffer","data":[209,234,187,151,60,109,127,249,139,224,66,185,223,157,20,226,140,176,54,149]},"announce":[],"urlList":[]}}